<svg xmlns="http://www.w3.org/2000/svg" version="1.1" width="500px" height="500px" style="shape-rendering:geometricPrecision; text-rendering:geometricPrecision; image-rendering:optimizeQuality; fill-rule:evenodd; clip-rule:evenodd" xmlns:xlink="http://www.w3.org/1999/xlink">
<g><path style="opacity:1" fill="black" d="M 39.5,-0.5 C 179.833,-0.5 320.167,-0.5 460.5,-0.5C 474.494,3.24456 485.328,11.2446 493,23.5C 496.062,28.6025 498.229,33.9359 499.5,39.5C 499.5,179.5 499.5,319.5 499.5,459.5C 494.386,481.614 480.72,494.947 458.5,499.5C 319.167,499.5 179.833,499.5 40.5,499.5C 25.582,496.416 14.082,488.416 6,475.5C 2.7516,470.112 0.584928,464.446 -0.5,458.5C -0.5,319.167 -0.5,179.833 -0.5,40.5C 1.65569,31.5141 5.48902,23.1808 11,15.5C 19.1755,7.66582 28.6755,2.33248 39.5,-0.5 Z"/>
<path style="opacity:1" fill="rgb(255, 255, 255)" d="M 233.5,76.5 C 312.582,74.9355 369.748,109.269 405,179.5C 432.478,254.466 417.311,319.299 359.5,374C 303.757,418.178 243.091,426.178 177.5,398C 123.84,370.237 92.0064,326.404 82,266.5C 76.8694,192.589 105.703,136.422 168.5,98C 188.925,86.6914 210.592,79.5247 233.5,76.5 Z"/>
<path style="opacity:1" fill="rgb(255, 255, 255)" d="M 239.5,103.5 C 301.865,103.073 348.031,130.073 378,184.5C 402.349,242.389 394.183,295.223 353.5,343C 316.497,379.665 272.164,393.665 220.5,385C 160.566,369.067 123.732,330.9 110,270.5C 101.664,204.676 125.831,154.843 182.5,121C 200.597,111.696 219.597,105.863 239.5,103.5 Z"/>
<path style="opacity:1" fill="black" d="M 213.5,151.5 C 213.5,177.5 213.5,203.5 213.5,229.5C 237.5,229.5 261.5,229.5 285.5,229.5C 285.5,203.5 285.5,177.5 285.5,151.5C 300.833,151.5 316.167,151.5 331.5,151.5C 331.5,188.167 331.5,224.833 331.5,261.5C 277.167,261.5 222.833,261.5 168.5,261.5C 168.5,224.833 168.5,188.167 168.5,151.5C 183.5,151.5 198.5,151.5 213.5,151.5 Z"/>
<path style="opacity:1" fill="black" d="M 168.5,276.5 C 183.5,276.5 198.5,276.5 213.5,276.5C 213.5,298.5 213.5,320.5 213.5,342.5C 198.5,342.5 183.5,342.5 168.5,342.5C 168.5,320.5 168.5,298.5 168.5,276.5 Z"/>
<path style="opacity:1" fill="black" d="M 285.5,276.5 C 300.5,276.5 315.5,276.5 330.5,276.5C 330.5,298.5 330.5,320.5 330.5,342.5C 315.5,342.5 300.5,342.5 285.5,342.5C 285.5,320.5 285.5,298.5 285.5,276.5 Z"/>
</g>
</svg>